<svg width="29" height="23" viewBox="0 0 29 23" fill="none" xmlns="http://www.w3.org/2000/svg">
<path d="M24.2169 0.854123C18.8826 6.19999 14.8088 10.6649 9.85791 15.7178L4.58425 11.2622C3.8229 10.6185 2.77555 10.4307 1.83799 10.7699C0.900426 11.1091 0.215644 11.9235 0.0424241 12.9054C-0.130796 13.8872 0.233964 14.8868 0.998858 15.5264L8.23927 21.6529C9.34356 22.5831 10.9756 22.5151 11.9987 21.4962C17.9971 15.485 22.2671 10.6836 28.1504 4.78761C28.9775 3.98819 29.228 2.76251 28.781 1.70264C28.3339 0.642767 27.2812 -0.0331998 26.1314 0.0012582C25.4065 0.0254092 24.7197 0.331388 24.2169 0.854123Z" fill="#FFFFFF"/>
</svg>
