<svg width="18" height="18" viewBox="0 0 18 18" fill="none" xmlns="http://www.w3.org/2000/svg">
<path d="M9 0C7.83042 0 6.88235 0.948124 6.88235 2.11765V6.88235H2.11765C0.948124 6.88235 0 7.83043 0 9.00001C0 10.1696 0.948124 11.1177 2.11765 11.1177H6.88235V15.8824C6.88235 17.0519 7.83042 18 9 18C10.1696 18 11.1176 17.0519 11.1176 15.8824V11.1177H15.8824C17.0519 11.1177 18 10.1696 18 9.00001C18 7.83043 17.0519 6.88235 15.8824 6.88235H11.1176V2.11765C11.1176 0.948124 10.1696 0 9 0Z" fill="#E6AF70"/>
</svg>
